<svg id="Capa_1" enable-background="new 0 0 512 512" height="512" viewBox="0 0 512 512" width="512" xmlns="http://www.w3.org/2000/svg"><g><g><path d="m422 436h-285c-24.814 0-45-20.186-45-45s20.186-45 45-45h45l-27.041 30h-17.959c-8.276 0-15 6.724-15 15s6.724 15 15 15h285z" fill="#6cf"/></g><path d="m287 406h135v30h-135z" fill="#59abff"/><g><path d="m108.379 166.006-13.405-60.006h-94.974v-30h119.026l25.987 116.367z" fill="#6cf"/></g><path d="m351.409 171.142-4.482-5.142h-238.521l46.553 210h263.657l52.866-204.58c-10.268 2.566-71.018 56.079-120.073-.278zm75.469 52.968-8.24 31.89h-70.344l3.814-45.762c21.999 13.407 49.036 18.739 74.77 13.872zm-171.083 31.89-5.001-60h72.411l-5.001 60zm59.91 30-5.001 60h-47.41l-5.001-60zm-95-90 5.001 60h-66.616l-13.301-60zm-54.965 90h62.465l5.001 60h-54.164zm175.055 60 5.001-60h65.092l-15.504 60z" fill="#6cf"/><path d="m351.409 171.142-4.482-5.142h-59.927v30h36.205l-5.001 60h-31.204v30h28.705l-5.001 60h-23.704v30h131.616l52.866-204.58c-10.268 2.565-71.017 56.078-120.073-.278zm43.975 174.858h-54.589l5.001-60h65.092zm31.494-121.89-8.24 31.89h-70.344l3.814-45.762c21.999 13.407 49.036 18.739 74.77 13.872z" fill="#59abff"/><g id="_Add_2_"><g><path d="m197 496c-24.814 0-45-20.186-45-45s20.186-45 45-45 45 20.186 45 45-20.186 45-45 45z" fill="#665151"/></g><g><path d="m347 496c-24.814 0-45-20.186-45-45s20.186-45 45-45 45 20.186 45 45-20.186 45-45 45z" fill="#4d3535"/></g><g><path d="m407 226c-59.5 0-105-48.612-105-105 0-57.891 47.109-105 105-105s105 47.109 105 105c0 59.299-48.168 105-105 105z" fill="#a0e65c"/></g></g><circle cx="197" cy="451" fill="#fff7e6" r="15"/><circle cx="347" cy="451" fill="#ffeacc" r="15"/><path d="m512 121c0-57.891-47.109-105-105-105v210c56.832 0 105-45.701 105-105z" fill="#79cc52"/><path d="m452 106h-30v-30h-30v30h-30v30h30v30h30v-30h30z" fill="#fff7e6"/><path d="m407 76v90h15v-30h30v-30h-30v-30z" fill="#ffeacc"/></g></svg>